<?xml version="1.0" standalone="no"?>
<!DOCTYPE svg PUBLIC "-//W3C//DTD SVG 20001102//EN" "http://www.w3.org/TR/2000/CR-SVG-20001102/DTD/svg-20001102.dtd">
<svg xmlns="http://www.w3.org/2000/svg" width="637" x="20" y="209" height="557" id="/home/java/Documents/Tex/Tex/Hausdorff" >
 <line style="stroke:rgb(0,0,255);stroke-width:1;fill:none;" y1="553" y2="549" x1="433" x2="104" />
 <line style="stroke:rgb(0,0,255);stroke-width:1;fill:none;" y1="212" y2="216" x1="110" x2="443" />
 <circle cx="444" cy="345" style="stroke:rgb(0,255,0);stroke-width:1;fill:rgb(0,255,0);" r="3" />
 <line style="stroke:rgb(0,255,0);stroke-width:1;fill:none;" y1="398" y2="273" x1="114" x2="167" />
 <line style="stroke:rgb(0,255,0);stroke-width:1;fill:none;" y1="345" y2="400" x1="443" x2="525" />
 <line style="stroke:rgb(0,255,0);stroke-width:1;fill:none;" y1="273" y2="345" x1="167" x2="443" />
 <line style="stroke:rgb(0,0,0);stroke-width:1;stroke-dasharray:3;fill:none;" y1="273" y2="212" x1="167" x2="110" />
 <line style="stroke:rgb(0,0,255);stroke-width:1;fill:none;" y1="375" y2="553" x1="634" x2="433" />
 <line style="stroke:rgb(0,0,0);stroke-width:1;stroke-dasharray:3;fill:none;" y1="400" y2="375" x1="525" x2="634" />
 <line style="stroke:rgb(0,255,0);stroke-width:1;fill:none;" y1="468" y2="398" x1="148" x2="114" />
 <line style="stroke:rgb(0,255,0);stroke-width:1;fill:none;" y1="400" y2="490" x1="525" x2="398" />
 <line style="stroke:rgb(255,0,0);stroke-width:3;stroke-dasharray:3;fill:none;" y1="216" y2="345" x1="443" x2="443" />
 <line style="stroke:rgb(0,0,255);stroke-width:1;fill:none;" y1="216" y2="375" x1="443" x2="634" />
 <circle cx="444" cy="216" style="stroke:rgb(0,0,255);stroke-width:1;fill:rgb(0,0,255);" r="3" />
 <circle cx="104" cy="550" style="stroke:rgb(0,0,255);stroke-width:1;fill:rgb(0,0,255);" r="3" />
 <line style="stroke:rgb(0,0,0);stroke-width:1;stroke-dasharray:3;fill:none;" y1="468" y2="549" x1="148" x2="104" />
 <circle cx="434" cy="554" style="stroke:rgb(0,0,255);stroke-width:1;fill:rgb(0,0,255);" r="3" />
 <line style="stroke:rgb(0,0,255);stroke-width:1;fill:none;" y1="549" y2="386" x1="104" x2="23" />
 <circle cx="398" cy="490" style="stroke:rgb(0,255,0);stroke-width:1;fill:rgb(0,255,0);" r="3" />
 <line style="stroke:rgb(0,255,0);stroke-width:1;fill:none;" y1="468" y2="496" x1="148" x2="185" />
 <line style="stroke:rgb(0,255,0);stroke-width:1;fill:none;" y1="496" y2="490" x1="185" x2="398" />
 <circle cx="168" cy="274" style="stroke:rgb(0,255,0);stroke-width:1;fill:rgb(0,255,0);" r="3" />
 <circle cx="186" cy="496" style="stroke:rgb(0,255,0);stroke-width:1;fill:rgb(0,255,0);" r="3" />
 <circle cx="634" cy="375" style="stroke:rgb(0,0,255);stroke-width:1;fill:rgb(0,0,255);" r="3" />
 <circle cx="114" cy="399" style="stroke:rgb(0,255,0);stroke-width:1;fill:rgb(0,255,0);" r="3" />
 <line style="stroke:rgb(0,0,0);stroke-width:1;stroke-dasharray:3;fill:none;" y1="496" y2="549" x1="185" x2="104" />
 <circle cx="23" cy="387" style="stroke:rgb(0,0,255);stroke-width:1;fill:rgb(0,0,255);" r="3" />
 <circle cx="110" cy="212" style="stroke:rgb(0,0,255);stroke-width:1;fill:rgb(0,0,255);" r="3" />
 <circle cx="525" cy="401" style="stroke:rgb(0,255,0);stroke-width:1;fill:rgb(0,255,0);" r="3" />
 <circle cx="148" cy="468" style="stroke:rgb(0,255,0);stroke-width:1;fill:rgb(0,255,0);" r="3" />
 <line style="stroke:rgb(0,0,255);stroke-width:1;fill:none;" y1="386" y2="212" x1="23" x2="110" />
 <line style="stroke:rgb(0,0,0);stroke-width:1;stroke-dasharray:3;fill:none;" y1="490" y2="553" x1="398" x2="433" />
 <line style="stroke:rgb(0,0,0);stroke-width:1;stroke-dasharray:3;fill:none;" y1="386" y2="398" x1="23" x2="114" />
</svg>
