<?xml version="1.0" standalone="no"?>
<!DOCTYPE svg PUBLIC "-//W3C//DTD SVG 20001102//EN" "http://www.w3.org/TR/2000/CR-SVG-20001102/DTD/svg-20001102.dtd">
<svg xmlns="http://www.w3.org/2000/svg" width="612" x="58" y="1" height="620" id="/home/java/Documents/Tex/Tex/RectDistance" >
 <line style="stroke:rgb(0,0,255);stroke-width:1;fill:none;" y1="1" y2="619" x1="200" x2="306" />
 <circle cx="284" cy="75" style="stroke:rgb(128,0,0);stroke-width:1;fill:rgb(128,0,0);" r="3" />
 <line style="stroke:rgb(128,0,0);stroke-width:1;fill:none;" y1="231" y2="278" x1="337" x2="397" />
 <circle cx="308" cy="444" style="stroke:rgb(128,0,0);stroke-width:1;fill:rgb(128,0,0);" r="3" />
 <line style="stroke:rgb(128,0,0);stroke-width:1;fill:none;" y1="122" y2="163" x1="364" x2="383" />
 <circle cx="438" cy="366" style="stroke:rgb(128,0,0);stroke-width:1;fill:rgb(128,0,0);" r="3" />
 <line style="stroke:rgb(128,0,0);stroke-width:1;fill:none;" y1="366" y2="407" x1="437" x2="360" />
 <circle cx="364" cy="122" style="stroke:rgb(128,0,0);stroke-width:1;fill:rgb(128,0,0);" r="3" />
 <circle cx="338" cy="232" style="stroke:rgb(128,0,0);stroke-width:1;fill:rgb(128,0,0);" r="3" />
 <line style="stroke:rgb(128,0,0);stroke-width:1;fill:none;" y1="333" y2="278" x1="441" x2="397" />
 <circle cx="291" cy="192" style="stroke:rgb(128,0,0);stroke-width:1;fill:rgb(128,0,0);" r="3" />
 <line style="stroke:rgb(128,0,0);stroke-width:1;fill:none;" y1="333" y2="366" x1="441" x2="437" />
 <line style="stroke:rgb(128,0,0);stroke-width:1;fill:none;" y1="219" y2="231" x1="264" x2="337" />
 <line style="stroke:rgb(128,0,0);stroke-width:1;fill:none;" y1="122" y2="75" x1="364" x2="284" />
 <line style="stroke:rgb(128,0,0);stroke-width:1;fill:none;" y1="443" y2="407" x1="308" x2="360" />
 <circle cx="292" cy="531" style="stroke:rgb(128,0,0);stroke-width:1;fill:rgb(128,0,0);" r="3" />
 <line style="stroke:rgb(128,0,0);stroke-width:1;fill:none;" y1="191" y2="219" x1="290" x2="264" />
 <circle cx="442" cy="333" style="stroke:rgb(128,0,0);stroke-width:1;fill:rgb(128,0,0);" r="3" />
 <line style="stroke:rgb(128,0,0);stroke-width:1;fill:none;" y1="163" y2="191" x1="383" x2="290" />
 <circle cx="278" cy="612" style="stroke:rgb(128,0,0);stroke-width:1;fill:rgb(128,0,0);" r="3" />
 <circle cx="360" cy="408" style="stroke:rgb(128,0,0);stroke-width:1;fill:rgb(128,0,0);" r="3" />
 <circle cx="383" cy="164" style="stroke:rgb(128,0,0);stroke-width:1;fill:rgb(128,0,0);" r="3" />
 <line style="stroke:rgb(128,0,0);stroke-width:1;fill:none;" y1="530" y2="443" x1="292" x2="308" />
 <circle cx="398" cy="278" style="stroke:rgb(128,0,0);stroke-width:1;fill:rgb(128,0,0);" r="3" />
 <circle cx="264" cy="220" style="stroke:rgb(128,0,0);stroke-width:1;fill:rgb(128,0,0);" r="3" />
 <line style="stroke:rgb(128,0,0);stroke-width:1;fill:none;" y1="612" y2="530" x1="277" x2="292" />
 <text x="338" y="459" style="fill:rgb(255,0,0);stroke-width:0;font-size:10;font-style:normal;font-weight:400;font-family:Sans Serif;" >200</text>
 <polygon points="116 447 97 176 272 170 353 216 261 244 296 289 336 257 383 310 305 351 289 438" style="stroke:rgb(0,0,0);stroke-width:0;fill:rgb(0,0,255);" />
 <text x="352" y="381" style="fill:rgb(255,0,0);stroke-width:0;font-size:10;font-style:normal;font-weight:400;font-family:Sans Serif;" >201</text>
 <text x="380" y="230" style="fill:rgb(255,0,0);stroke-width:0;font-size:10;font-style:normal;font-weight:400;font-family:Sans Serif;" >205</text>
 <text x="380" y="331" style="fill:rgb(0,0,255);stroke-width:0;font-size:10;font-style:normal;font-weight:400;font-family:Sans Serif;" >107</text>
 <line style="stroke:rgb(0,0,255);stroke-width:1;fill:none;" y1="171" y2="195" x1="316" x2="356" />
 <line style="stroke:rgb(0,0,0);stroke-width:1;stroke-dasharray:3;fill:none;" y1="244" y2="214" x1="261" x2="379" />
 <circle cx="505" cy="405" style="stroke:rgb(255,0,0);stroke-width:1;fill:rgb(255,0,0);" r="3" />
 <text x="407" y="338" style="fill:rgb(255,0,0);stroke-width:0;font-size:10;font-style:normal;font-weight:400;font-family:Sans Serif;" >202</text>
 <line style="stroke:rgb(0,0,255);stroke-width:1;fill:none;" y1="318" y2="338" x1="395" x2="355" />
 <circle cx="404" cy="325" style="stroke:rgb(255,0,0);stroke-width:1;fill:rgb(255,0,0);" r="3" />
 <circle cx="407" cy="173" style="stroke:rgb(255,0,0);stroke-width:1;fill:rgb(255,0,0);" r="3" />
 <circle cx="395" cy="280" style="stroke:rgb(255,0,0);stroke-width:1;fill:rgb(255,0,0);" r="3" />
 <circle cx="272" cy="170" style="stroke:rgb(0,0,255);stroke-width:1;fill:rgb(0,0,255);" r="3" />
 <line style="stroke:rgb(0,0,0);stroke-width:1;stroke-dasharray:3;fill:none;" y1="351" y2="325" x1="305" x2="404" />
 <text x="344" y="302" style="fill:rgb(0,0,255);stroke-width:0;font-size:10;font-style:normal;font-weight:400;font-family:Sans Serif;" >CL</text>
 <line style="stroke:rgb(0,0,255);stroke-width:1;fill:none;" y1="285" y2="287" x1="337" x2="345" />
 <line style="stroke:rgb(0,0,255);stroke-width:1;fill:none;" y1="287" y2="294" x1="345" x2="333" />
 <line style="stroke:rgb(0,0,255);stroke-width:1;fill:none;" y1="287" y2="275" x1="345" x2="339" />
 <text x="326" y="316" style="fill:rgb(0,0,255);stroke-width:0;font-size:10;font-style:normal;font-weight:400;font-family:Sans Serif;" >Cthis</text>
 <text x="337" y="274" style="fill:rgb(0,0,255);stroke-width:0;font-size:10;font-style:normal;font-weight:400;font-family:Sans Serif;" >106</text>
 <circle cx="338" cy="285" style="stroke:rgb(0,255,0);stroke-width:1;fill:rgb(0,255,0);" r="3" />
 <circle cx="395" cy="301" style="stroke:rgb(0,0,0);stroke-width:1;fill:rgb(0,0,0);" r="3" />
 <circle cx="351" cy="244" style="stroke:rgb(255,0,0);stroke-width:1;fill:rgb(255,0,0);" r="3" />
 <text x="574" y="142" style="fill:rgb(0,0,255);stroke-width:0;font-size:10;font-style:normal;font-weight:400;font-family:Sans Serif;" >this1</text>
 <circle cx="296" cy="289" style="stroke:rgb(0,0,255);stroke-width:1;fill:rgb(0,0,255);" r="3" />
 <circle cx="383" cy="310" style="stroke:rgb(0,0,255);stroke-width:1;fill:rgb(0,0,255);" r="3" />
 <circle cx="336" cy="257" style="stroke:rgb(0,0,255);stroke-width:1;fill:rgb(0,0,255);" r="3" />
 <text x="287" y="459" style="fill:rgb(0,0,255);stroke-width:0;font-size:10;font-style:normal;font-weight:400;font-family:Sans Serif;" >109</text>
 <line style="stroke:rgb(0,0,255);stroke-width:1;fill:none;" y1="274" y2="301" x1="372" x2="395" />
 <circle cx="356" cy="196" style="stroke:rgb(0,0,0);stroke-width:1;fill:rgb(0,0,0);" r="3" />
 <circle cx="578" cy="128" style="stroke:rgb(0,0,255);stroke-width:1;fill:rgb(0,0,255);" r="3" />
 <text x="250" y="309" style="fill:rgb(0,255,0);stroke-width:0;font-size:10;font-style:normal;font-weight:400;font-family:Sans Serif;" >M1</text>
 <text x="578" y="474" style="fill:rgb(0,0,255);stroke-width:0;font-size:10;font-style:normal;font-weight:400;font-family:Sans Serif;" >this0</text>
 <text x="273" y="186" style="fill:rgb(0,0,255);stroke-width:0;font-size:10;font-style:normal;font-weight:400;font-family:Sans Serif;" >102</text>
 <text x="295" y="306" style="fill:rgb(0,0,255);stroke-width:0;font-size:10;font-style:normal;font-weight:400;font-family:Sans Serif;" >105</text>
 <line style="stroke:rgb(0,0,255);stroke-width:1;fill:none;" y1="357" y2="401" x1="328" x2="320" />
 <circle cx="355" cy="338" style="stroke:rgb(0,0,0);stroke-width:1;fill:rgb(0,0,0);" r="3" />
 <text x="337" y="299" style="fill:rgb(0,0,255);stroke-width:0;font-size:10;font-style:normal;font-weight:400;font-family:Sans Serif;" >CR</text>
 <line style="stroke:rgb(0,0,0);stroke-width:1;fill:none;" y1="310" y2="279" x1="383" x2="395" />
 <line style="stroke:rgb(0,0,0);stroke-width:1;stroke-dasharray:3;fill:none;" y1="170" y2="172" x1="272" x2="360" />
 <text x="413" y="282" style="fill:rgb(0,255,0);stroke-width:0;font-size:10;font-style:normal;font-weight:400;font-family:Sans Serif;" >M2</text>
 <line style="stroke:rgb(0,0,255);stroke-width:1;fill:none;" y1="195" y2="215" x1="356" x2="365" />
 <line style="stroke:rgb(0,0,0);stroke-width:1;stroke-dasharray:3;fill:none;" y1="438" y2="362" x1="289" x2="352" />
 <line style="stroke:rgb(0,0,255);stroke-width:1;fill:none;" y1="401" y2="441" x1="320" x2="312" />
 <text x="343" y="301" style="fill:rgb(0,0,255);stroke-width:0;font-size:10;font-style:normal;font-weight:400;font-family:Sans Serif;" >6</text>
 <line style="stroke:rgb(0,0,255);stroke-width:1;fill:none;" y1="250" y2="274" x1="342" x2="372" />
 <circle cx="346" cy="288" style="stroke:rgb(0,255,0);stroke-width:1;fill:rgb(0,255,0);" r="3" />
 <polygon points="94 475 579 457 577 127 58 140" style="stroke:rgb(0,0,0);stroke-width:0;fill:rgb(255,255,0);" />
 <text x="342" y="301" style="fill:rgb(0,0,255);stroke-width:0;font-size:10;font-style:normal;font-weight:400;font-family:Sans Serif;" >2</text>
 <circle cx="328" cy="357" style="stroke:rgb(0,0,0);stroke-width:1;fill:rgb(0,0,0);" r="3" />
 <circle cx="395" cy="318" style="stroke:rgb(0,0,0);stroke-width:1;fill:rgb(0,0,0);" r="3" />
 <text x="527" y="188" style="fill:rgb(255,0,0);stroke-width:0;font-size:10;font-style:normal;font-weight:400;font-family:Sans Serif;" >208</text>
 <line style="stroke:rgb(0,0,255);stroke-width:1;fill:none;" y1="301" y2="318" x1="395" x2="395" />
 <circle cx="579" cy="457" style="stroke:rgb(0,0,255);stroke-width:1;fill:rgb(0,0,255);" r="3" />
 <circle cx="327" cy="301" style="stroke:rgb(0,255,0);stroke-width:1;fill:rgb(0,255,0);" r="3" />
 <line style="stroke:rgb(0,0,0);stroke-width:1;stroke-dasharray:3;fill:none;" y1="257" y2="243" x1="336" x2="351" />
 <text x="406" y="184" style="fill:rgb(255,0,0);stroke-width:0;font-size:10;font-style:normal;font-weight:400;font-family:Sans Serif;" >207</text>
 <text x="506" y="422" style="fill:rgb(255,0,0);stroke-width:0;font-size:10;font-style:normal;font-weight:400;font-family:Sans Serif;" >209</text>
 <text x="351" y="256" style="fill:rgb(255,0,0);stroke-width:0;font-size:10;font-style:normal;font-weight:400;font-family:Sans Serif;" >204</text>
 <circle cx="320" cy="230" style="stroke:rgb(0,0,0);stroke-width:1;fill:rgb(0,0,0);" r="3" />
 <circle cx="343" cy="250" style="stroke:rgb(0,0,0);stroke-width:1;fill:rgb(0,0,0);" r="3" />
 <line style="stroke:rgb(0,0,255);stroke-width:1;fill:none;" y1="215" y2="230" x1="365" x2="320" />
 <circle cx="306" cy="352" style="stroke:rgb(0,0,255);stroke-width:1;fill:rgb(0,0,255);" r="3" />
 <line style="stroke:rgb(0,0,0);stroke-width:1;stroke-dasharray:3;fill:none;" y1="310" y2="325" x1="383" x2="404" />
 <line style="stroke:rgb(0,0,0);stroke-width:1;stroke-dasharray:3;fill:none;" y1="257" y2="279" x1="336" x2="395" />
 <line style="stroke:rgb(0,0,255);stroke-width:1;fill:none;" y1="338" y2="357" x1="355" x2="328" />
 <line style="stroke:rgb(0,0,0);stroke-width:1;stroke-dasharray:3;fill:none;" y1="216" y2="214" x1="353" x2="379" />
 <line style="stroke:rgb(0,255,0);stroke-width:1;fill:none;" y1="294" y2="266" x1="250" x2="413" />
 <circle cx="306" cy="245" style="stroke:rgb(0,0,0);stroke-width:1;fill:rgb(0,0,0);" r="3" />
 <circle cx="352" cy="362" style="stroke:rgb(255,0,0);stroke-width:1;fill:rgb(255,0,0);" r="3" />
 <line style="stroke:rgb(0,0,0);stroke-width:1;stroke-dasharray:3;fill:none;" y1="438" y2="443" x1="289" x2="336" />
 <circle cx="379" cy="214" style="stroke:rgb(255,0,0);stroke-width:1;fill:rgb(255,0,0);" r="3" />
 <circle cx="414" cy="266" style="stroke:rgb(0,255,0);stroke-width:1;fill:rgb(0,255,0);" r="3" />
 <circle cx="312" cy="441" style="stroke:rgb(0,0,0);stroke-width:1;fill:rgb(0,0,0);" r="3" />
 <circle cx="320" cy="401" style="stroke:rgb(0,0,0);stroke-width:1;fill:rgb(0,0,0);" r="3" />
 <text x="394" y="294" style="fill:rgb(255,0,0);stroke-width:0;font-size:10;font-style:normal;font-weight:400;font-family:Sans Serif;" >203</text>
 <circle cx="354" cy="217" style="stroke:rgb(0,0,255);stroke-width:1;fill:rgb(0,0,255);" r="3" />
 <circle cx="366" cy="216" style="stroke:rgb(0,0,0);stroke-width:1;fill:rgb(0,0,0);" r="3" />
 <circle cx="530" cy="170" style="stroke:rgb(255,0,0);stroke-width:1;fill:rgb(255,0,0);" r="3" />
 <line style="stroke:rgb(0,0,0);stroke-width:1;stroke-dasharray:3;fill:none;" y1="244" y2="243" x1="261" x2="351" />
 <circle cx="372" cy="274" style="stroke:rgb(0,0,0);stroke-width:1;fill:rgb(0,0,0);" r="3" />
 <circle cx="262" cy="245" style="stroke:rgb(0,0,255);stroke-width:1;fill:rgb(0,0,255);" r="3" />
 <line style="stroke:rgb(0,0,0);stroke-width:1;stroke-dasharray:3;fill:none;" y1="351" y2="362" x1="305" x2="352" />
 <line style="stroke:rgb(0,0,0);stroke-width:1;stroke-dasharray:3;fill:none;" y1="216" y2="172" x1="353" x2="360" />
 <line style="stroke:rgb(0,0,255);stroke-width:1;fill:none;" y1="230" y2="244" x1="320" x2="305" />
 <circle cx="251" cy="294" style="stroke:rgb(0,255,0);stroke-width:1;fill:rgb(0,255,0);" r="3" />
 <circle cx="316" cy="172" style="stroke:rgb(0,0,0);stroke-width:1;fill:rgb(0,0,0);" r="3" />
 <circle cx="360" cy="173" style="stroke:rgb(255,0,0);stroke-width:1;fill:rgb(255,0,0);" r="3" />
 <text x="302" y="375" style="fill:rgb(0,0,255);stroke-width:0;font-size:10;font-style:normal;font-weight:400;font-family:Sans Serif;" >108</text>
 <text x="356" y="188" style="fill:rgb(255,0,0);stroke-width:0;font-size:10;font-style:normal;font-weight:400;font-family:Sans Serif;" >206</text>
 <circle cx="336" cy="444" style="stroke:rgb(255,0,0);stroke-width:1;fill:rgb(255,0,0);" r="3" />
 <text x="354" y="229" style="fill:rgb(255,0,0);stroke-width:0;font-size:10;font-style:normal;font-weight:400;font-family:Sans Serif;" >103</text>
 <polygon points="336 443 352 362 404 325 395 279 351 243 379 214 360 172 407 172 529 170 504 405" style="stroke:rgb(0,0,0);stroke-width:0;fill:rgb(255,0,0);" />
 <line style="stroke:rgb(0,0,255);stroke-width:1;fill:none;" y1="244" y2="250" x1="305" x2="342" />
 <text x="258" y="268" style="fill:rgb(0,0,255);stroke-width:0;font-size:10;font-style:normal;font-weight:400;font-family:Sans Serif;" >104</text>
 <circle cx="290" cy="439" style="stroke:rgb(0,0,255);stroke-width:1;fill:rgb(0,0,255);" r="3" />
 <line style="stroke:rgb(0,0,255);stroke-width:1;fill:none;" y1="1" y2="619" x1="368" x2="474" />
</svg>
