<?xml version="1.0" standalone="no"?>
<!DOCTYPE svg PUBLIC "-//W3C//DTD SVG 20001102//EN" "http://www.w3.org/TR/2000/CR-SVG-20001102/DTD/svg-20001102.dtd">
<svg xmlns="http://www.w3.org/2000/svg" width="652" x="135" y="141" height="423" id="/home/java/Documents/Tex/Tex/Referenzpunkte" >
 <line style="stroke:rgb(0,0,255);stroke-width:1;fill:none;" y1="253" y2="372" x1="601" x2="404" />
 <circle cx="404" cy="373" style="stroke:rgb(0,0,255);stroke-width:1;fill:rgb(0,0,255);" r="3" />
 <circle cx="231" cy="190" style="stroke:rgb(0,0,255);stroke-width:1;fill:rgb(0,0,255);" r="3" />
 <circle cx="410" cy="192" style="stroke:rgb(0,0,255);stroke-width:1;fill:rgb(0,0,255);" r="3" />
 <circle cx="184" cy="284" style="stroke:rgb(0,0,255);stroke-width:1;fill:rgb(0,0,255);" r="3" />
 <path style="stroke:rgb(0,0,255);stroke-width:1;fill:none;" d="M 554.347 238.861 A 50 50 162.375 0 0 559.226 279.892" />
 <polygon points="558 278 550 276 560 270" style="stroke:rgb(0,0,255);stroke-width:1;fill:rgb(0,0,255);" />
 <path style="stroke:rgb(0,0,255);stroke-width:1;fill:none;" d="M 277.996 371.654 A 50 50 359.25 0 0 205.69 326.253" />
 <polygon points="204 325 207 318 211 328" style="stroke:rgb(0,0,255);stroke-width:1;fill:rgb(0,0,255);" />
 <line style="stroke:rgb(0,0,255);stroke-width:1;fill:none;" y1="370" y2="283" x1="227" x2="184" />
 <circle cx="228" cy="371" style="stroke:rgb(0,0,255);stroke-width:1;fill:rgb(0,0,255);" r="3" />
 <circle cx="602" cy="253" style="stroke:rgb(0,0,255);stroke-width:1;fill:rgb(0,0,255);" r="3" />
 <path style="stroke:rgb(0,0,255);stroke-width:1;fill:none;" d="M 207.359 328.722 A 50 50 296.562 0 0 207.407 239.302" />
 <polygon points="206 238 213 235 209 245" style="stroke:rgb(0,0,255);stroke-width:1;fill:rgb(0,0,255);" />
 <path style="stroke:rgb(0,0,255);stroke-width:1;fill:none;" d="M 209.593 235.698 A 50 50 243.375 0 0 281.996 191.654" />
 <polygon points="280 190 286 196 274 196" style="stroke:rgb(0,0,255);stroke-width:1;fill:rgb(0,0,255);" />
 <circle cx="343" cy="277" style="stroke:rgb(255,0,0);stroke-width:1;fill:rgb(255,0,0);" r="3" />
 <line style="stroke:rgb(0,0,255);stroke-width:1;fill:none;" y1="190" y2="192" x1="231" x2="409" />
 <line style="stroke:rgb(0,0,255);stroke-width:1;fill:none;" y1="372" y2="370" x1="404" x2="227" />
 <circle cx="410" cy="192" style="stroke:rgb(0,0,255);stroke-width:1;fill:rgb(0,0,255);" r="3" />
 <line style="stroke:rgb(0,0,255);stroke-width:1;fill:none;" y1="283" y2="190" x1="184" x2="231" />
 <line style="stroke:rgb(0,0,255);stroke-width:1;fill:none;" y1="192" y2="253" x1="409" x2="601" />
 <path style="stroke:rgb(0,0,255);stroke-width:1;fill:none;" d="M 360.004 192.4 A 50 50 179.312 0 0 457.636 208.191" />
 <polygon points="456 207 460 213 450 211" style="stroke:rgb(0,0,255);stroke-width:1;fill:rgb(0,0,255);" />
 <circle cx="414" cy="249" style="stroke:rgb(0,255,0);stroke-width:1;fill:rgb(0,255,0);" r="3" />
 <path style="stroke:rgb(0,0,255);stroke-width:1;fill:none;" d="M 447.774 347.108 A 50 50 31.1875 0 0 355.004 372.346" />
 <polygon points="354 371 349 366 359 366" style="stroke:rgb(0,0,255);stroke-width:1;fill:rgb(0,0,255);" />
</svg>
